<svg xmlns="http://www.w3.org/2000/svg" version="1.1" viewBox="0 0 64 64" width="64" height="64"><path stroke="#ffffff" stroke-width="2" fill="none" stroke-linecap="butt" d="M 29.08 32.95 Q 31.59 33.79 32.42 36.53 Q 34.14 42.17 35.77 47.70 Q 35.88 48.08 36.29 48.08 L 45.24 48.09 A 0.64 0.64 0.0 0 0 45.88 47.46 L 45.89 47.02 Q 45.90 46.39 45.27 46.38 L 41.77 46.35 Q 41.16 46.35 41.00 45.76 Q 39.32 39.52 36.82 33.69 Q 36.57 33.10 37.17 32.87 C 39.72 31.89 41.24 29.76 41.17 26.92 Q 41.04 21.37 41.16 16.60 Q 41.17 16.08 40.65 16.08 Q 36.69 16.09 36.64 16.09 A 0.48 0.48 0.0 0 0 36.17 16.57 Q 36.23 21.40 36.25 26.83 Q 36.26 29.41 33.75 29.98 Q 32.30 30.30 30.67 30.67 Q 28.55 31.15 28.55 28.98 L 28.56 16.55 Q 28.56 16.11 28.12 16.11 L 23.45 16.12 A 0.43 0.43 0.0 0 0 23.03 16.55 L 23.03 45.78 Q 23.03 46.35 22.47 46.35 L 18.76 46.36 A 0.50 0.50 0.0 0 0 18.26 46.86 L 18.26 47.28 Q 18.26 48.07 19.05 48.07 L 28.02 48.09 Q 28.64 48.09 28.64 47.48 L 28.66 33.26 A 0.32 0.32 0.0 0 1 29.08 32.95" data-c-stroke="eb9f9f"/><path fill="#96380c" d="M 64.00 0.00 L 64.00 64.00 L 0.00 64.00 L 0.00 0.00 L 64.00 0.00 Z M 29.08 32.95 Q 31.59 33.79 32.42 36.53 Q 34.14 42.17 35.77 47.70 Q 35.88 48.08 36.29 48.08 L 45.24 48.09 A 0.64 0.64 0.0 0 0 45.88 47.46 L 45.89 47.02 Q 45.90 46.39 45.27 46.38 L 41.77 46.35 Q 41.16 46.35 41.00 45.76 Q 39.32 39.52 36.82 33.69 Q 36.57 33.10 37.17 32.87 C 39.72 31.89 41.24 29.76 41.17 26.92 Q 41.04 21.37 41.16 16.60 Q 41.17 16.08 40.65 16.08 Q 36.69 16.09 36.64 16.09 A 0.48 0.48 0.0 0 0 36.17 16.57 Q 36.23 21.40 36.25 26.83 Q 36.26 29.41 33.75 29.98 Q 32.30 30.30 30.67 30.67 Q 28.55 31.15 28.55 28.98 L 28.56 16.55 Q 28.56 16.11 28.12 16.11 L 23.45 16.12 A 0.43 0.43 0.0 0 0 23.03 16.55 L 23.03 45.78 Q 23.03 46.35 22.47 46.35 L 18.76 46.36 A 0.50 0.50 0.0 0 0 18.26 46.86 L 18.26 47.28 Q 18.26 48.07 19.05 48.07 L 28.02 48.09 Q 28.64 48.09 28.64 47.48 L 28.66 33.26 A 0.32 0.32 0.0 0 1 29.08 32.95 Z" data-c-fill="d73f3f"/><path fill="#ffffff" d="M 29.08 32.95 A 0.32 0.32 0.0 0 0 28.66 33.26 L 28.64 47.48 Q 28.64 48.09 28.02 48.09 L 19.05 48.07 Q 18.26 48.07 18.26 47.28 L 18.26 46.86 A 0.50 0.50 0.0 0 1 18.76 46.36 L 22.47 46.35 Q 23.03 46.35 23.03 45.78 L 23.03 16.55 A 0.43 0.43 0.0 0 1 23.45 16.12 L 28.12 16.11 Q 28.56 16.11 28.56 16.55 L 28.55 28.98 Q 28.55 31.15 30.67 30.67 Q 32.30 30.30 33.75 29.98 Q 36.26 29.41 36.25 26.83 Q 36.23 21.40 36.17 16.57 A 0.48 0.48 0.0 0 1 36.64 16.09 Q 36.69 16.09 40.65 16.08 Q 41.17 16.08 41.16 16.60 Q 41.04 21.37 41.17 26.92 C 41.24 29.76 39.72 31.89 37.17 32.87 Q 36.57 33.10 36.82 33.69 Q 39.32 39.52 41.00 45.76 Q 41.16 46.35 41.77 46.35 L 45.27 46.38 Q 45.90 46.39 45.89 47.02 L 45.88 47.46 A 0.64 0.64 0.0 0 1 45.24 48.09 L 36.29 48.08 Q 35.88 48.08 35.77 47.70 Q 34.14 42.17 32.42 36.53 Q 31.59 33.79 29.08 32.95 Z" data-c-fill="ffffff"/></svg>